<svg xmlns="http://www.w3.org/2000/svg" viewBox="0 0 960 650" width="960" height="650" font-family="'WenQuanYi Zen Hei','Noto Sans CJK SC','PingFang SC','Microsoft YaHei',sans-serif"><title>图5 草稿的光致产生力机理</title><style>text{font-family:'WenQuanYi Zen Hei','Noto Sans CJK SC','PingFang SC','Microsoft YaHei',sans-serif;fill:#1f2933;}.h{font-weight:700;} .mut{fill:#52606d;} .halo{paint-order:stroke;stroke:#ffffff;stroke-width:4px;stroke-linejoin:round;}</style><defs><marker id="ah-k" viewBox="0 0 10 10" refX="8.5" refY="5" markerWidth="5.5" markerHeight="5.5" orient="auto-start-reverse"><path d="M0,0 L10,5 L0,10 z" fill="#1f2933"/></marker><marker id="ah-b" viewBox="0 0 10 10" refX="8.5" refY="5" markerWidth="5.5" markerHeight="5.5" orient="auto-start-reverse"><path d="M0,0 L10,5 L0,10 z" fill="#2563eb"/></marker><marker id="ah-r" viewBox="0 0 10 10" refX="8.5" refY="5" markerWidth="5.5" markerHeight="5.5" orient="auto-start-reverse"><path d="M0,0 L10,5 L0,10 z" fill="#dc2626"/></marker><marker id="ah-g" viewBox="0 0 10 10" refX="8.5" refY="5" markerWidth="5.5" markerHeight="5.5" orient="auto-start-reverse"><path d="M0,0 L10,5 L0,10 z" fill="#059669"/></marker><marker id="ah-p" viewBox="0 0 10 10" refX="8.5" refY="5" markerWidth="5.5" markerHeight="5.5" orient="auto-start-reverse"><path d="M0,0 L10,5 L0,10 z" fill="#7c3aed"/></marker><marker id="ah-o" viewBox="0 0 10 10" refX="8.5" refY="5" markerWidth="5.5" markerHeight="5.5" orient="auto-start-reverse"><path d="M0,0 L10,5 L0,10 z" fill="#ea8a00"/></marker><marker id="ah-m" viewBox="0 0 10 10" refX="8.5" refY="5" markerWidth="5.5" markerHeight="5.5" orient="auto-start-reverse"><path d="M0,0 L10,5 L0,10 z" fill="#52606d"/></marker><marker id="ah-lb" viewBox="0 0 10 10" refX="8.5" refY="5" markerWidth="5.5" markerHeight="5.5" orient="auto-start-reverse"><path d="M0,0 L10,5 L0,10 z" fill="#60a5fa"/></marker><radialGradient id="haloSrc"><stop offset="0" stop-color="#f472b6" stop-opacity="0.55"/><stop offset="1" stop-color="#f472b6" stop-opacity="0"/></radialGradient><radialGradient id="warm"><stop offset="0" stop-color="#f87171" stop-opacity="0.6"/><stop offset="1" stop-color="#f87171" stop-opacity="0"/></radialGradient><radialGradient id="glow"><stop offset="0" stop-color="#fde047" stop-opacity="0.8"/><stop offset="1" stop-color="#fde047" stop-opacity="0"/></radialGradient></defs><rect x="0" y="0" width="960" height="650" fill="#ffffff"/><text x="20" y="30" font-size="18" text-anchor="start" font-weight="700">图5  草稿中“光致产生力”的机理：以有丝分裂微管星状体为类比</text>
<rect x="16" y="46" width="456" height="300" rx="10" fill="#fffbeb" stroke="#fcd34d" stroke-width="1.2"/>
<text x="28" y="70" font-size="14" text-anchor="start" font-weight="700">(a) 生物原型：微管的聚合/解聚产生推力与拉力</text>
<line x1="80" y1="190" x2="199.4125697823584" y2="99.22203913959407" stroke="#c08a1a" stroke-width="1.6" opacity="0.7"/>
<line x1="408" y1="190" x2="288.5874302176416" y2="99.22203913959407" stroke="#c08a1a" stroke-width="1.6" opacity="0.7"/>
<line x1="80" y1="190" x2="210.17287695164748" y2="115.4679793234395" stroke="#c08a1a" stroke-width="1.6" opacity="0.7"/>
<line x1="408" y1="190" x2="277.8271230483525" y2="115.4679793234395" stroke="#c08a1a" stroke-width="1.6" opacity="0.7"/>
<line x1="80" y1="190" x2="218.73635897859697" y2="132.9717377315258" stroke="#c08a1a" stroke-width="1.6" opacity="0.7"/>
<line x1="408" y1="190" x2="269.26364102140303" y2="132.9717377315258" stroke="#c08a1a" stroke-width="1.6" opacity="0.7"/>
<line x1="80" y1="190" x2="224.95849672017698" y2="151.43791721617674" stroke="#c08a1a" stroke-width="1.6" opacity="0.7"/>
<line x1="408" y1="190" x2="263.041503279823" y2="151.43791721617674" stroke="#c08a1a" stroke-width="1.6" opacity="0.7"/>
<line x1="80" y1="190" x2="228.73428405721822" y2="170.55487860704577" stroke="#c08a1a" stroke-width="1.6" opacity="0.7"/>
<line x1="408" y1="190" x2="259.26571594278175" y2="170.55487860704577" stroke="#c08a1a" stroke-width="1.6" opacity="0.7"/>
<line x1="80" y1="190" x2="230.0" y2="190.0" stroke="#c08a1a" stroke-width="1.6" opacity="0.7"/>
<line x1="408" y1="190" x2="258.0" y2="190.0" stroke="#c08a1a" stroke-width="1.6" opacity="0.7"/>
<line x1="80" y1="190" x2="228.73428405721822" y2="209.44512139295423" stroke="#c08a1a" stroke-width="1.6" opacity="0.7"/>
<line x1="408" y1="190" x2="259.26571594278175" y2="209.44512139295423" stroke="#c08a1a" stroke-width="1.6" opacity="0.7"/>
<line x1="80" y1="190" x2="224.95849672017698" y2="228.56208278382326" stroke="#c08a1a" stroke-width="1.6" opacity="0.7"/>
<line x1="408" y1="190" x2="263.041503279823" y2="228.56208278382326" stroke="#c08a1a" stroke-width="1.6" opacity="0.7"/>
<line x1="80" y1="190" x2="218.73635897859697" y2="247.0282622684742" stroke="#c08a1a" stroke-width="1.6" opacity="0.7"/>
<line x1="408" y1="190" x2="269.26364102140303" y2="247.0282622684742" stroke="#c08a1a" stroke-width="1.6" opacity="0.7"/>
<line x1="80" y1="190" x2="210.17287695164748" y2="264.5320206765605" stroke="#c08a1a" stroke-width="1.6" opacity="0.7"/>
<line x1="408" y1="190" x2="277.8271230483525" y2="264.5320206765605" stroke="#c08a1a" stroke-width="1.6" opacity="0.7"/>
<line x1="80" y1="190" x2="199.4125697823584" y2="280.7779608604059" stroke="#c08a1a" stroke-width="1.6" opacity="0.7"/>
<line x1="408" y1="190" x2="288.5874302176416" y2="280.7779608604059" stroke="#c08a1a" stroke-width="1.6" opacity="0.7"/>
<circle cx="80" cy="190" r="15" fill="#22c55e" stroke="#15803d" stroke-width="1.2"/>
<rect x="74" y="186" width="12" height="8" rx="2" fill="#dc2626" stroke="none" stroke-width="1.2"/>
<circle cx="408" cy="190" r="15" fill="#22c55e" stroke="#15803d" stroke-width="1.2"/>
<rect x="402" y="186" width="12" height="8" rx="2" fill="#dc2626" stroke="none" stroke-width="1.2"/>
<path d="M234,165 L254,215 M254,165 L234,215" stroke="#7e22ce" stroke-width="7" fill="none"/>
<circle cx="236" cy="190" r="4" fill="#0ea5e9" stroke="none" stroke-width="1.2"/>
<circle cx="252" cy="190" r="4" fill="#0ea5e9" stroke="none" stroke-width="1.2"/>
<line x1="244" y1="110" x2="244" y2="270" stroke="#7e22ce" stroke-width="1" stroke-dasharray="4 4"/>
<text x="244" y="104" font-size="11" text-anchor="middle" class="halo" fill="#7e22ce">赤道板</text>
<line x1="180" y1="150" x2="226" y2="160" stroke="#dc2626" stroke-width="2.2" marker-end="url(#ah-r)"/>
<text x="120" y="138" font-size="11" text-anchor="start" class="halo" fill="#dc2626">生长→推（极向排斥力）</text>
<line x1="262" y1="190" x2="320" y2="190" stroke="#059669" stroke-width="2.2" marker-end="url(#ah-g)"/>
<text x="270" y="240" font-size="11" text-anchor="start" class="halo" fill="#059669">收缩→拉</text>
<text x="270" y="256" font-size="11" text-anchor="start" class="halo" fill="#059669">（动粒偶联器保持结合）</text>
<text x="32" y="296.0" font-size="12" text-anchor="start">单根微管推力 ~pN（聚合棘轮）；解聚拉力依赖 Ndc80/Dam1 等偶联器。</text>
<text x="32" y="313.4" font-size="12" text-anchor="start">推/拉平衡使染色体整列于两星状体中间（赤道板）。</text>
<rect x="488" y="46" width="456" height="300" rx="10" fill="#f5f3ff" stroke="#c4b5fd" stroke-width="1.2"/>
<text x="500" y="70" font-size="14" text-anchor="start" font-weight="700">(b) 草稿的人工类比：延伸丝伸缩 = 力</text>
<g opacity="1.0"><path d="M604.4,180.6 Q613.4,179.7 619.6,182.6" stroke="#16a34a" stroke-width="1.20" fill="none" stroke-linecap="round"/><path d="M603.9,182.0 Q609.2,187.1 614.8,187.7" stroke="#16a34a" stroke-width="1.20" fill="none" stroke-linecap="round"/><path d="M603.0,183.2 Q607.1,191.3 613.4,194.6" stroke="#16a34a" stroke-width="1.20" fill="none" stroke-linecap="round"/><path d="M601.7,184.1 Q606.0,190.0 606.4,195.4" stroke="#16a34a" stroke-width="1.20" fill="none" stroke-linecap="round"/><path d="M600.2,184.4 Q598.2,193.2 600.9,199.8" stroke="#16a34a" stroke-width="1.20" fill="none" stroke-linecap="round"/><path d="M598.7,184.2 Q594.6,190.3 595.0,195.9" stroke="#16a34a" stroke-width="1.20" fill="none" stroke-linecap="round"/><path d="M597.3,183.5 Q593.6,191.7 588.0,195.7" stroke="#16a34a" stroke-width="1.20" fill="none" stroke-linecap="round"/><path d="M596.3,182.4 Q589.2,184.4 586.0,189.0" stroke="#16a34a" stroke-width="1.20" fill="none" stroke-linecap="round"/><path d="M595.7,181.0 Q586.6,180.5 580.7,184.3" stroke="#16a34a" stroke-width="1.20" fill="none" stroke-linecap="round"/><path d="M595.6,179.4 Q588.4,180.2 583.5,177.8" stroke="#16a34a" stroke-width="1.20" fill="none" stroke-linecap="round"/><path d="M596.1,178.0 Q589.4,171.8 582.4,170.9" stroke="#16a34a" stroke-width="1.20" fill="none" stroke-linecap="round"/><path d="M597.0,176.8 Q593.8,170.2 588.7,167.7" stroke="#16a34a" stroke-width="1.20" fill="none" stroke-linecap="round"/><path d="M598.3,175.9 Q593.1,168.6 592.4,161.7" stroke="#16a34a" stroke-width="1.20" fill="none" stroke-linecap="round"/><path d="M599.8,175.6 Q601.6,168.5 599.3,163.4" stroke="#16a34a" stroke-width="1.20" fill="none" stroke-linecap="round"/><path d="M601.3,175.8 Q606.2,168.2 605.9,161.1" stroke="#16a34a" stroke-width="1.20" fill="none" stroke-linecap="round"/><path d="M602.7,176.5 Q605.6,169.8 610.1,166.8" stroke="#16a34a" stroke-width="1.20" fill="none" stroke-linecap="round"/><path d="M603.7,177.6 Q612.4,174.9 616.7,169.3" stroke="#16a34a" stroke-width="1.20" fill="none" stroke-linecap="round"/><path d="M604.3,179.0 Q611.6,179.5 616.3,176.4" stroke="#16a34a" stroke-width="1.20" fill="none" stroke-linecap="round"/><circle cx="600" cy="180" r="5.5" fill="#facc15" stroke="#ca8a04" stroke-width="1"/></g>
<circle cx="600" cy="180" r="40" fill="none" stroke="#16a34a" stroke-width="1" stroke-dasharray="3 3"/>
<line x1="658.0" y1="180.0" x2="624.0" y2="180.0" stroke="#dc2626" stroke-width="2" marker-end="url(#ah-r)"/>
<line x1="641.0121933088197" y1="221.01219330881975" x2="616.9705627484772" y2="196.97056274847714" stroke="#dc2626" stroke-width="2" marker-end="url(#ah-r)"/>
<line x1="600.0" y1="238.0" x2="600.0" y2="204.0" stroke="#dc2626" stroke-width="2" marker-end="url(#ah-r)"/>
<line x1="558.9878066911803" y1="221.01219330881975" x2="583.0294372515228" y2="196.97056274847714" stroke="#dc2626" stroke-width="2" marker-end="url(#ah-r)"/>
<line x1="542.0" y1="180.0" x2="576.0" y2="180.0" stroke="#dc2626" stroke-width="2" marker-end="url(#ah-r)"/>
<line x1="558.9878066911803" y1="138.98780669118025" x2="583.0294372515228" y2="163.02943725152286" stroke="#dc2626" stroke-width="2" marker-end="url(#ah-r)"/>
<line x1="600.0" y1="122.0" x2="600.0" y2="156.0" stroke="#dc2626" stroke-width="2" marker-end="url(#ah-r)"/>
<line x1="641.0121933088197" y1="138.98780669118023" x2="616.9705627484772" y2="163.02943725152286" stroke="#dc2626" stroke-width="2" marker-end="url(#ah-r)"/>
<text x="600" y="258" font-size="12" text-anchor="middle" font-weight="700" fill="#7c3aed">UV：延伸丝溶解收缩</text>
<text x="600" y="276" font-size="12" text-anchor="middle" fill="#dc2626">→“向内力（拉）”</text>
<g opacity="1.0"><path d="M837.9,181.0 Q854.3,179.5 865.7,184.7" stroke="#16a34a" stroke-width="2.00" fill="none" stroke-linecap="round"/><path d="M837.1,183.7 Q846.7,193.0 856.9,194.0" stroke="#16a34a" stroke-width="2.00" fill="none" stroke-linecap="round"/><path d="M835.4,185.9 Q843.0,200.6 854.3,206.5" stroke="#16a34a" stroke-width="2.00" fill="none" stroke-linecap="round"/><path d="M833.1,187.4 Q840.9,198.1 841.6,208.0" stroke="#16a34a" stroke-width="2.00" fill="none" stroke-linecap="round"/><path d="M830.4,188.0 Q826.7,204.1 831.6,216.0" stroke="#16a34a" stroke-width="2.00" fill="none" stroke-linecap="round"/><path d="M827.6,187.6 Q820.1,198.7 820.9,208.9" stroke="#16a34a" stroke-width="2.00" fill="none" stroke-linecap="round"/><path d="M825.1,186.4 Q818.3,201.3 808.1,208.6" stroke="#16a34a" stroke-width="2.00" fill="none" stroke-linecap="round"/><path d="M823.3,184.3 Q810.4,188.0 804.5,196.3" stroke="#16a34a" stroke-width="2.00" fill="none" stroke-linecap="round"/><path d="M822.2,181.7 Q805.7,180.9 794.9,187.8" stroke="#16a34a" stroke-width="2.00" fill="none" stroke-linecap="round"/><path d="M822.1,179.0 Q808.9,180.4 800.0,176.1" stroke="#16a34a" stroke-width="2.00" fill="none" stroke-linecap="round"/><path d="M822.9,176.3 Q810.8,165.1 798.1,163.4" stroke="#16a34a" stroke-width="2.00" fill="none" stroke-linecap="round"/><path d="M824.6,174.1 Q818.7,162.1 809.5,157.7" stroke="#16a34a" stroke-width="2.00" fill="none" stroke-linecap="round"/><path d="M826.9,172.6 Q817.4,159.2 816.2,146.8" stroke="#16a34a" stroke-width="2.00" fill="none" stroke-linecap="round"/><path d="M829.6,172.0 Q832.9,159.0 828.7,149.8" stroke="#16a34a" stroke-width="2.00" fill="none" stroke-linecap="round"/><path d="M832.4,172.4 Q841.3,158.5 840.8,145.7" stroke="#16a34a" stroke-width="2.00" fill="none" stroke-linecap="round"/><path d="M834.9,173.6 Q840.2,161.5 848.4,156.0" stroke="#16a34a" stroke-width="2.00" fill="none" stroke-linecap="round"/><path d="M836.7,175.7 Q852.5,170.8 860.3,160.6" stroke="#16a34a" stroke-width="2.00" fill="none" stroke-linecap="round"/><path d="M837.8,178.3 Q851.1,179.2 859.6,173.4" stroke="#16a34a" stroke-width="2.00" fill="none" stroke-linecap="round"/><circle cx="830" cy="180" r="10.0" fill="#facc15" stroke="#ca8a04" stroke-width="1"/></g>
<line x1="871.1627962693321" y1="188.34411189339258" x2="898.6046604488869" y2="193.9068531556543" stroke="#2563eb" stroke-width="2" marker-end="url(#ah-b)"/>
<line x1="853.2063142718479" y1="215.0066704774423" x2="868.6771904530798" y2="238.34445079573715" stroke="#2563eb" stroke-width="2" marker-end="url(#ah-b)"/>
<line x1="821.6558881066074" y1="221.16279626933215" x2="816.0931468443457" y2="248.60466044888693" stroke="#2563eb" stroke-width="2" marker-end="url(#ah-b)"/>
<line x1="794.9933295225577" y1="203.20631427184787" x2="771.6555492042628" y2="218.6771904530798" stroke="#2563eb" stroke-width="2" marker-end="url(#ah-b)"/>
<line x1="788.8372037306679" y1="171.65588810660742" x2="761.3953395511131" y2="166.0931468443457" stroke="#2563eb" stroke-width="2" marker-end="url(#ah-b)"/>
<line x1="806.7936857281521" y1="144.9933295225577" x2="791.3228095469202" y2="121.65554920426285" stroke="#2563eb" stroke-width="2" marker-end="url(#ah-b)"/>
<line x1="838.3441118933926" y1="138.83720373066785" x2="843.9068531556543" y2="111.39533955111308" stroke="#2563eb" stroke-width="2" marker-end="url(#ah-b)"/>
<line x1="865.0066704774423" y1="156.79368572815213" x2="888.3444507957372" y2="141.3228095469202" stroke="#2563eb" stroke-width="2" marker-end="url(#ah-b)"/>
<text x="830" y="276" font-size="12" text-anchor="middle" font-weight="700" fill="#ea8a00">Vis：延伸丝再生长 →“推力”</text>
<text x="502" y="306.0" font-size="12" text-anchor="start" fill="#dc2626">⚠ 草稿图3b 在均匀 UV 与均匀 Vis 下都标注 “Radial-Inward Force”，</text>
<text x="502" y="323.4" font-size="12" text-anchor="start" fill="#dc2626">   与“收缩拉、生长推”的类比本身不一致。</text>
<rect x="16" y="362" width="928" height="272" rx="10" fill="#f8fafc" stroke="#cbd5e1" stroke-width="1.2"/>
<text x="28" y="386" font-size="14" text-anchor="start" font-weight="700">(c) 草稿图3e–h：“中间域对齐”，用以模拟染色体整列</text>
<g opacity="1.0"><path d="M137.5,501.0 Q153.1,499.5 163.9,504.4" stroke="#16a34a" stroke-width="1.90" fill="none" stroke-linecap="round"/><path d="M136.7,503.5 Q145.9,512.3 155.5,513.3" stroke="#16a34a" stroke-width="1.90" fill="none" stroke-linecap="round"/><path d="M135.1,505.6 Q142.3,519.5 153.1,525.2" stroke="#16a34a" stroke-width="1.90" fill="none" stroke-linecap="round"/><path d="M132.9,507.0 Q140.4,517.2 141.0,526.6" stroke="#16a34a" stroke-width="1.90" fill="none" stroke-linecap="round"/><path d="M130.3,507.6 Q126.9,522.9 131.5,534.2" stroke="#16a34a" stroke-width="1.90" fill="none" stroke-linecap="round"/><path d="M127.7,507.3 Q120.6,517.8 121.4,527.4" stroke="#16a34a" stroke-width="1.90" fill="none" stroke-linecap="round"/><path d="M125.4,506.0 Q118.9,520.2 109.2,527.2" stroke="#16a34a" stroke-width="1.90" fill="none" stroke-linecap="round"/><path d="M123.6,504.1 Q111.4,507.6 105.8,515.5" stroke="#16a34a" stroke-width="1.90" fill="none" stroke-linecap="round"/><path d="M122.6,501.7 Q106.9,500.9 96.6,507.4" stroke="#16a34a" stroke-width="1.90" fill="none" stroke-linecap="round"/><path d="M122.5,499.0 Q109.9,500.4 101.5,496.3" stroke="#16a34a" stroke-width="1.90" fill="none" stroke-linecap="round"/><path d="M123.3,496.5 Q111.7,485.9 99.7,484.2" stroke="#16a34a" stroke-width="1.90" fill="none" stroke-linecap="round"/><path d="M124.9,494.4 Q119.3,483.0 110.5,478.8" stroke="#16a34a" stroke-width="1.90" fill="none" stroke-linecap="round"/><path d="M127.1,493.0 Q118.1,480.2 116.9,468.4" stroke="#16a34a" stroke-width="1.90" fill="none" stroke-linecap="round"/><path d="M129.7,492.4 Q132.7,480.1 128.7,471.3" stroke="#16a34a" stroke-width="1.90" fill="none" stroke-linecap="round"/><path d="M132.3,492.7 Q140.8,479.6 140.3,467.4" stroke="#16a34a" stroke-width="1.90" fill="none" stroke-linecap="round"/><path d="M134.6,494.0 Q139.7,482.4 147.5,477.2" stroke="#16a34a" stroke-width="1.90" fill="none" stroke-linecap="round"/><path d="M136.4,495.9 Q151.4,491.3 158.8,481.6" stroke="#16a34a" stroke-width="1.90" fill="none" stroke-linecap="round"/><path d="M137.4,498.3 Q150.1,499.2 158.1,493.7" stroke="#16a34a" stroke-width="1.90" fill="none" stroke-linecap="round"/><circle cx="130" cy="500" r="9.5" fill="#facc15" stroke="#ca8a04" stroke-width="1"/></g>
<g opacity="1.0"><path d="M477.5,501.0 Q493.1,499.5 503.9,504.4" stroke="#16a34a" stroke-width="1.90" fill="none" stroke-linecap="round"/><path d="M476.7,503.5 Q485.9,512.3 495.5,513.3" stroke="#16a34a" stroke-width="1.90" fill="none" stroke-linecap="round"/><path d="M475.1,505.6 Q482.3,519.5 493.1,525.2" stroke="#16a34a" stroke-width="1.90" fill="none" stroke-linecap="round"/><path d="M472.9,507.0 Q480.4,517.2 481.0,526.6" stroke="#16a34a" stroke-width="1.90" fill="none" stroke-linecap="round"/><path d="M470.3,507.6 Q466.9,522.9 471.5,534.2" stroke="#16a34a" stroke-width="1.90" fill="none" stroke-linecap="round"/><path d="M467.7,507.3 Q460.6,517.8 461.4,527.4" stroke="#16a34a" stroke-width="1.90" fill="none" stroke-linecap="round"/><path d="M465.4,506.0 Q458.9,520.2 449.2,527.2" stroke="#16a34a" stroke-width="1.90" fill="none" stroke-linecap="round"/><path d="M463.6,504.1 Q451.4,507.6 445.8,515.5" stroke="#16a34a" stroke-width="1.90" fill="none" stroke-linecap="round"/><path d="M462.6,501.7 Q446.9,500.9 436.6,507.4" stroke="#16a34a" stroke-width="1.90" fill="none" stroke-linecap="round"/><path d="M462.5,499.0 Q449.9,500.4 441.5,496.3" stroke="#16a34a" stroke-width="1.90" fill="none" stroke-linecap="round"/><path d="M463.3,496.5 Q451.7,485.9 439.7,484.2" stroke="#16a34a" stroke-width="1.90" fill="none" stroke-linecap="round"/><path d="M464.9,494.4 Q459.3,483.0 450.5,478.8" stroke="#16a34a" stroke-width="1.90" fill="none" stroke-linecap="round"/><path d="M467.1,493.0 Q458.1,480.2 456.9,468.4" stroke="#16a34a" stroke-width="1.90" fill="none" stroke-linecap="round"/><path d="M469.7,492.4 Q472.7,480.1 468.7,471.3" stroke="#16a34a" stroke-width="1.90" fill="none" stroke-linecap="round"/><path d="M472.3,492.7 Q480.8,479.6 480.3,467.4" stroke="#16a34a" stroke-width="1.90" fill="none" stroke-linecap="round"/><path d="M474.6,494.0 Q479.7,482.4 487.5,477.2" stroke="#16a34a" stroke-width="1.90" fill="none" stroke-linecap="round"/><path d="M476.4,495.9 Q491.4,491.3 498.8,481.6" stroke="#16a34a" stroke-width="1.90" fill="none" stroke-linecap="round"/><path d="M477.4,498.3 Q490.1,499.2 498.1,493.7" stroke="#16a34a" stroke-width="1.90" fill="none" stroke-linecap="round"/><circle cx="470" cy="500" r="9.5" fill="#facc15" stroke="#ca8a04" stroke-width="1"/></g>
<line x1="300" y1="420" x2="300" y2="590" stroke="#7e22ce" stroke-width="1.2" stroke-dasharray="5 4"/>
<text x="300" y="612" font-size="11" text-anchor="middle" fill="#7e22ce">两星状体中线（“赤道”）</text>
<circle cx="222" cy="500" r="11" fill="#e2e8f0" stroke="#475569" stroke-width="1.5"/>
<text x="222" y="530" font-size="11" text-anchor="middle">微珠 α</text>
<line x1="236" y1="500" x2="290" y2="500" stroke="#dc2626" stroke-width="2.6" marker-end="url(#ah-r)"/>
<circle cx="560" cy="470" r="9" fill="#e2e8f0" stroke="#475569" stroke-width="1.5"/>
<text x="560" y="450" font-size="11" text-anchor="middle">微珠 β</text>
<line x1="572" y1="470" x2="612" y2="470" stroke="#059669" stroke-width="2.4" marker-end="url(#ah-g)"/>
<text x="640" y="420" font-size="12" text-anchor="start">草稿的论证链：</text>
<text x="640" y="442" font-size="12" text-anchor="start">光能 → 延伸丝生长/收缩 → 机械力 → 货物定位</text>
<text x="640" y="464" font-size="12" text-anchor="start">• 图3g：两星状体周围的矢量场＋热图</text>
<text x="640" y="486" font-size="12" text-anchor="start">  （色标 0–250，单位与测量方法未注明）；</text>
<text x="640" y="508" font-size="12" text-anchor="start">• 图3g 待补：“中间无力区逐渐扩大”；</text>
<text x="640" y="530" font-size="12" text-anchor="start">• 图3h：微珠 α 移至中线并停住，β 被推离；</text>
<text x="640" y="552" font-size="12" text-anchor="start">• 标题称“光能”，摘要却写“化学能 → 机械功”；</text>
<text x="640" y="574" font-size="12" text-anchor="start">• 正文“Traction force …”小节目前只有标题。</text></svg>